<?xml version="1.0" standalone="no"?><svg xmlns="http://www.w3.org/2000/svg" viewBox="0 0 1440 320"><path fill="#cc0000" fill-opacity="0.9" d="M0,192L34.3,165.3C68.6,139,137,85,206,101.3C274.3,117,343,203,411,234.7C480,267,549,245,617,224C685.7,203,754,181,823,186.7C891.4,192,960,224,1029,224C1097.1,224,1166,192,1234,170.7C1302.9,149,1371,139,1406,133.3L1440,128L1440,320L1405.7,320C1371.4,320,1303,320,1234,320C1165.7,320,1097,320,1029,320C960,320,891,320,823,320C754.3,320,686,320,617,320C548.6,320,480,320,411,320C342.9,320,274,320,206,320C137.1,320,69,320,34,320L0,320Z"></path></svg>